<svg width="28" height="28" viewBox="0 0 28 28" fill="none" xmlns="http://www.w3.org/2000/svg">
<path fill-rule="evenodd" clip-rule="evenodd" d="M23.3334 5.83325H13.4578L11.4708 2.85277C11.2544 2.5282 10.8902 2.33325 10.5001 2.33325H4.66675C2.73375 2.33325 1.16675 3.90026 1.16675 5.83325V22.1666C1.16675 24.0996 2.73375 25.6666 4.66675 25.6666H23.3334C25.2664 25.6666 26.8334 24.0996 26.8334 22.1666V9.33325C26.8334 7.40026 25.2664 5.83325 23.3334 5.83325ZM4.66675 4.66659H9.8757L11.8627 7.64707C12.0791 7.97163 12.4433 8.16658 12.8334 8.16658H23.3334C23.9777 8.16658 24.5001 8.68892 24.5001 9.33325V22.1666C24.5001 22.8109 23.9777 23.3333 23.3334 23.3333H4.66675C4.02242 23.3333 3.50008 22.8109 3.50008 22.1666V5.83325C3.50008 5.18892 4.02242 4.66659 4.66675 4.66659Z" fill="black"/>
<mask id="mask0_3_3494" style="mask-type:luminance" maskUnits="userSpaceOnUse" x="1" y="2" width="26" height="24">
<path fill-rule="evenodd" clip-rule="evenodd" d="M23.3334 5.83325H13.4578L11.4708 2.85277C11.2544 2.5282 10.8902 2.33325 10.5001 2.33325H4.66675C2.73375 2.33325 1.16675 3.90026 1.16675 5.83325V22.1666C1.16675 24.0996 2.73375 25.6666 4.66675 25.6666H23.3334C25.2664 25.6666 26.8334 24.0996 26.8334 22.1666V9.33325C26.8334 7.40026 25.2664 5.83325 23.3334 5.83325ZM4.66675 4.66659H9.8757L11.8627 7.64707C12.0791 7.97163 12.4433 8.16658 12.8334 8.16658H23.3334C23.9777 8.16658 24.5001 8.68892 24.5001 9.33325V22.1666C24.5001 22.8109 23.9777 23.3333 23.3334 23.3333H4.66675C4.02242 23.3333 3.50008 22.8109 3.50008 22.1666V5.83325C3.50008 5.18892 4.02242 4.66659 4.66675 4.66659Z" fill="white"/>
</mask>
<g mask="url(#mask0_3_3494)">
<rect width="28" height="28" fill="white" fill-opacity="0.8"/>
</g>
</svg>
