<svg width="28" height="28" viewBox="0 0 28 28" fill="none" xmlns="http://www.w3.org/2000/svg">
<path fill-rule="evenodd" clip-rule="evenodd" d="M11.6666 2.33325H3.49992C2.85559 2.33325 2.33325 2.85559 2.33325 3.49992V11.6666C2.33325 12.3109 2.85559 12.8333 3.49992 12.8333H11.6666C12.3109 12.8333 12.8333 12.3109 12.8333 11.6666V3.49992C12.8333 2.85559 12.3109 2.33325 11.6666 2.33325ZM4.66658 10.4999V4.66658H10.4999V10.4999H4.66658ZM16.3333 2.33325H24.4999C25.1443 2.33325 25.6666 2.85559 25.6666 3.49992V11.6666C25.6666 12.3109 25.1443 12.8333 24.4999 12.8333H16.3333C15.6889 12.8333 15.1666 12.3109 15.1666 11.6666V3.49992C15.1666 2.85559 15.6889 2.33325 16.3333 2.33325ZM23.3333 10.4999H17.4999V4.66658H23.3333V10.4999ZM16.3333 15.1666H24.4999C25.1443 15.1666 25.6666 15.6889 25.6666 16.3333V24.4999C25.6666 25.1443 25.1443 25.6666 24.4999 25.6666H16.3333C15.6889 25.6666 15.1666 25.1443 15.1666 24.4999V16.3333C15.1666 15.6889 15.6889 15.1666 16.3333 15.1666ZM23.3333 23.3333H17.4999V17.4999H23.3333V23.3333ZM3.49992 15.1666H11.6666C12.3109 15.1666 12.8333 15.6889 12.8333 16.3333V24.4999C12.8333 25.1443 12.3109 25.6666 11.6666 25.6666H3.49992C2.85559 25.6666 2.33325 25.1443 2.33325 24.4999V16.3333C2.33325 15.6889 2.85559 15.1666 3.49992 15.1666ZM10.4999 23.3333H4.66659V17.4999H10.4999V23.3333Z" fill="black"/>
<mask id="mask0_3_3503" style="mask-type:luminance" maskUnits="userSpaceOnUse" x="2" y="2" width="24" height="24">
<path fill-rule="evenodd" clip-rule="evenodd" d="M11.6666 2.33325H3.49992C2.85559 2.33325 2.33325 2.85559 2.33325 3.49992V11.6666C2.33325 12.3109 2.85559 12.8333 3.49992 12.8333H11.6666C12.3109 12.8333 12.8333 12.3109 12.8333 11.6666V3.49992C12.8333 2.85559 12.3109 2.33325 11.6666 2.33325ZM4.66658 10.4999V4.66658H10.4999V10.4999H4.66658ZM16.3333 2.33325H24.4999C25.1443 2.33325 25.6666 2.85559 25.6666 3.49992V11.6666C25.6666 12.3109 25.1443 12.8333 24.4999 12.8333H16.3333C15.6889 12.8333 15.1666 12.3109 15.1666 11.6666V3.49992C15.1666 2.85559 15.6889 2.33325 16.3333 2.33325ZM23.3333 10.4999H17.4999V4.66658H23.3333V10.4999ZM16.3333 15.1666H24.4999C25.1443 15.1666 25.6666 15.6889 25.6666 16.3333V24.4999C25.6666 25.1443 25.1443 25.6666 24.4999 25.6666H16.3333C15.6889 25.6666 15.1666 25.1443 15.1666 24.4999V16.3333C15.1666 15.6889 15.6889 15.1666 16.3333 15.1666ZM23.3333 23.3333H17.4999V17.4999H23.3333V23.3333ZM3.49992 15.1666H11.6666C12.3109 15.1666 12.8333 15.6889 12.8333 16.3333V24.4999C12.8333 25.1443 12.3109 25.6666 11.6666 25.6666H3.49992C2.85559 25.6666 2.33325 25.1443 2.33325 24.4999V16.3333C2.33325 15.6889 2.85559 15.1666 3.49992 15.1666ZM10.4999 23.3333H4.66659V17.4999H10.4999V23.3333Z" fill="white"/>
</mask>
<g mask="url(#mask0_3_3503)">
<rect width="28" height="28" fill="white" fill-opacity="0.8"/>
</g>
</svg>
