<svg width="203" height="53" viewBox="0 0 203 53" fill="none" xmlns="http://www.w3.org/2000/svg">
<path fill-rule="evenodd" clip-rule="evenodd" d="M66.2414 0H9.34295C4.20432 0 0 4.16958 0 9.26573V38.5455C9.34295 38.7307 17.518 37.4336 24.6654 35.2098V13.2037H34.0549L38.6331 29.1871L39.474 32.1984L40.5016 28.0288L44.1921 13.2037H54.0022V17.1416C62.6445 8.24651 66.2414 0 66.2414 0ZM47.5078 23.0717V20.848L46.7604 23.6739C46.9429 23.5532 47.1056 23.413 47.2613 23.2787L47.2614 23.2786L47.2614 23.2786C47.3449 23.2066 47.4264 23.1363 47.5078 23.0717ZM33.8675 31.6425C32.8866 32.152 31.8587 32.6153 30.7844 33.0323V21.1258L33.8675 31.6425Z" fill="#FFD130"/>
<path d="M78.7143 9.26573V43.7342C78.7143 48.8304 74.5099 53 69.3714 53H9.34295C4.20432 53 0 48.8304 0 43.7342V38.5455C9.34295 38.7307 17.518 37.4336 24.6654 35.2098V39.75H30.785V33.0323C31.8593 32.6153 32.8872 32.152 33.8681 31.6425L36.2506 39.75H42.5104L46.7614 23.6276C46.9951 23.4422 47.2753 23.2569 47.5088 23.0254V39.7037H54.0022V17.1416C62.5976 8.24651 66.1947 0 66.1947 0H69.3245C74.5099 0 78.7143 4.16958 78.7143 9.26573Z" fill="#F2B919"/>
<path fill-rule="evenodd" clip-rule="evenodd" d="M174.927 14.5199C176.726 14.5199 178.144 13.0769 178.144 11.3369C178.144 9.57559 176.726 8.15384 174.927 8.15384C173.128 8.15384 171.71 9.57559 171.71 11.3369C171.71 13.0769 173.128 14.5199 174.927 14.5199ZM119.342 40.3448V9.72412H111.934L103.256 31.7082H103.087L94.4083 9.72412H87V40.3448H92.6938V19.6764H92.8631L101.16 40.3448H105.182L113.479 19.6764H113.649V40.3448H119.342ZM144.849 17.5968H138.668V30.626C138.668 33.6393 136.953 35.6127 134.202 35.6127C131.471 35.6127 129.969 34 129.969 30.9655V17.5968H123.788V32.26C123.788 37.565 127.048 40.7692 131.958 40.7692C135.387 40.7692 137.631 39.1141 138.753 36.2494H138.88V40.3448H144.849V17.5968ZM163.157 17.5968H169.613L161.824 40.3448H154.839L146.986 17.5968H153.611L158.332 34.87H158.459L163.157 17.5968ZM171.856 17.5968V40.3448H178.037V17.5968H171.856Z" fill="white"/>
</svg>
