<svg width="18" height="18" viewBox="0 0 18 18" fill="none" xmlns="http://www.w3.org/2000/svg">
<path fill-rule="evenodd" clip-rule="evenodd" d="M3 2.25H15C16.2352 2.25 17.2435 3.25428 17.25 4.48802C17.2501 4.49507 17.2501 4.50212 17.25 4.50917V13.5C17.25 14.7392 16.2392 15.75 15 15.75H3C1.76079 15.75 0.75 14.7392 0.75 13.5V4.50918M2.32993 4.16546L9 8.83451L15.6701 4.16546C15.546 3.92019 15.291 3.75 15 3.75H3C2.70903 3.75 2.45397 3.92019 2.32993 4.16546ZM3 2.25C1.76512 2.25 0.75708 3.25372 0.750037 4.48699ZM2.25 5.94049V13.5C2.25 13.9108 2.58921 14.25 3 14.25H15C15.4108 14.25 15.75 13.9108 15.75 13.5V5.94049L9.4301 10.3644C9.17186 10.5452 8.82814 10.5452 8.5699 10.3644L2.25 5.94049Z" fill="black"/>
<mask id="mask0_3_5096" style="mask-type:luminance" maskUnits="userSpaceOnUse" x="0" y="2" width="18" height="14">
<path fill-rule="evenodd" clip-rule="evenodd" d="M3 2.25H15C16.2352 2.25 17.2435 3.25428 17.25 4.48802C17.2501 4.49507 17.2501 4.50212 17.25 4.50917V13.5C17.25 14.7392 16.2392 15.75 15 15.75H3C1.76079 15.75 0.75 14.7392 0.75 13.5V4.50918M2.32993 4.16546L9 8.83451L15.6701 4.16546C15.546 3.92019 15.291 3.75 15 3.75H3C2.70903 3.75 2.45397 3.92019 2.32993 4.16546ZM3 2.25C1.76512 2.25 0.75708 3.25372 0.750037 4.48699ZM2.25 5.94049V13.5C2.25 13.9108 2.58921 14.25 3 14.25H15C15.4108 14.25 15.75 13.9108 15.75 13.5V5.94049L9.4301 10.3644C9.17186 10.5452 8.82814 10.5452 8.5699 10.3644L2.25 5.94049Z" fill="white"/>
</mask>
<g mask="url(#mask0_3_5096)">
<rect width="18" height="18" fill="#FFD130"/>
</g>
</svg>
